<?xml version="1.0" encoding="utf-8"?>
<!-- Generator: Adobe Illustrator 24.2.1, SVG Export Plug-In . SVG Version: 6.00 Build 0)  -->
<svg version="1.1" xmlns="http://www.w3.org/2000/svg" xmlns:xlink="http://www.w3.org/1999/xlink" x="0px" y="0px"
	 viewBox="0 0 1200 800" style="enable-background:new 0 0 1200 800;" xml:space="preserve">
<style type="text/css">
	.st0{fill:url(#SVGID_1_);}
	.st1{filter:url(#Adobe_OpacityMaskFilter);}
	.st2{fill:url(#SVGID_3_);}
	.st3{opacity:0.5;mask:url(#SVGID_2_);}
	.st4{opacity:0.5;clip-path:url(#SVGID_5_);fill:url(#SVGID_6_);}
	.st5{clip-path:url(#SVGID_5_);}
	.st6{fill:#A2FF00;}
</style>
<g id="Background">
</g>
<g id="Object">
	<linearGradient id="SVGID_1_" gradientUnits="userSpaceOnUse" x1="600" y1="800" x2="600" y2="-22.6455">
		<stop  offset="0" style="stop-color:#000000"/>
		<stop  offset="1" style="stop-color:#03141E"/>
	</linearGradient>
	<rect y="-22.6" class="st0" width="1200" height="822.6"/>
	<defs>
		<filter id="Adobe_OpacityMaskFilter" filterUnits="userSpaceOnUse" x="-808.5" y="543.3" width="2817" height="402.2">
			<feColorMatrix  type="matrix" values="1 0 0 0 0  0 1 0 0 0  0 0 1 0 0  0 0 0 1 0"/>
		</filter>
	</defs>
	<mask maskUnits="userSpaceOnUse" x="-808.5" y="543.3" width="2817" height="402.2" id="SVGID_2_">
		<g class="st1">
			<linearGradient id="SVGID_3_" gradientUnits="userSpaceOnUse" x1="600" y1="800.9009" x2="600" y2="580.0247">
				<stop  offset="0" style="stop-color:#FFFFFF"/>
				<stop  offset="5.699041e-02" style="stop-color:#E4E4E4"/>
				<stop  offset="0.1952" style="stop-color:#A9A9A9"/>
				<stop  offset="0.3331" style="stop-color:#757575"/>
				<stop  offset="0.4671" style="stop-color:#4B4B4B"/>
				<stop  offset="0.5967" style="stop-color:#2A2A2A"/>
				<stop  offset="0.7206" style="stop-color:#131313"/>
				<stop  offset="0.8364" style="stop-color:#050505"/>
				<stop  offset="0.936" style="stop-color:#000000"/>
			</linearGradient>
			<rect y="575" class="st2" width="1200" height="225"/>
		</g>
	</mask>
	<g class="st3">
		<g>
			<defs>
				<rect id="SVGID_4_" y="543.3" width="1200" height="256.7"/>
			</defs>
			<clipPath id="SVGID_5_">
				<use xlink:href="#SVGID_4_"  style="overflow:visible;"/>
			</clipPath>
			<radialGradient id="SVGID_6_" cx="600" cy="792.2778" r="293.3567" gradientUnits="userSpaceOnUse">
				<stop  offset="0" style="stop-color:#A2FF00"/>
				<stop  offset="0.6916" style="stop-color:#405625;stop-opacity:0.3084"/>
				<stop  offset="1" style="stop-color:#140936;stop-opacity:0"/>
			</radialGradient>
			<ellipse class="st4" cx="600" cy="792.3" rx="394.2" ry="129.4"/>
			<g class="st5">
				<g>
					<path class="st6" d="M2008.5,945.5h-2817l810.6-340h1195.9l0.3,0.1L2008.5,945.5z M-793.6,942.5h2787.2l-796.3-334H2.7
						L-793.6,942.5z"/>
				</g>
				<g>
					<rect x="-34" y="620.8" class="st6" width="1268" height="3"/>
				</g>
				<g>
					<rect x="-75.1" y="638" class="st6" width="1350.1" height="3"/>
				</g>
				<g>
					<rect x="-121.8" y="657.6" class="st6" width="1443.6" height="3"/>
				</g>
				<g>
					<rect x="-175.5" y="680.1" class="st6" width="1551" height="3"/>
				</g>
				<g>
					<rect x="-237.9" y="706.3" class="st6" width="1675.7" height="3"/>
				</g>
				<g>
					<rect x="-311.1" y="737" class="st6" width="1822.2" height="3"/>
				</g>
				<g>
					<rect x="-398.4" y="773.6" class="st6" width="1996.8" height="3"/>
				</g>
				<g>
					<rect x="-504.2" y="818" class="st6" width="2208.4" height="3"/>
				</g>
				<g>
					<rect x="-635" y="872.9" class="st6" width="2470.1" height="3"/>
				</g>
				<g>
					
						<rect x="-562.4" y="774" transform="matrix(0.8855 -0.4646 0.4646 0.8855 -383.1436 -3.896)" class="st6" width="725.7" height="3"/>
				</g>
				<g>
					
						<rect x="-293.7" y="774" transform="matrix(0.8196 -0.5729 0.5729 0.8196 -444.2312 140.1115)" class="st6" width="588.2" height="3"/>
				</g>
				<g>
					
						<rect x="-32.6" y="774" transform="matrix(0.6901 -0.7237 0.7237 0.6901 -499.1772 385.2288)" class="st6" width="465.7" height="3"/>
				</g>
				<g>
					
						<rect x="213.4" y="774" transform="matrix(0.4303 -0.9027 0.9027 0.4303 -472.1042 802.9764)" class="st6" width="373.4" height="3"/>
				</g>
				<g>
					<rect x="598.5" y="607" class="st6" width="3" height="337"/>
				</g>
				<g>
					
						<rect x="798.4" y="588.8" transform="matrix(0.9027 -0.4303 0.4303 0.9027 -255.8901 419.7107)" class="st6" width="3" height="373.4"/>
				</g>
				<g>
					
						<rect x="998.2" y="542.7" transform="matrix(0.7237 -0.6901 0.6901 0.7237 -258.9807 904.1579)" class="st6" width="3" height="465.7"/>
				</g>
				<g>
					
						<rect x="1198.1" y="481.4" transform="matrix(0.573 -0.8196 0.8196 0.573 -123.3592 1314.2847)" class="st6" width="3" height="588.2"/>
				</g>
				<g>
					
						<rect x="1398" y="412.7" transform="matrix(0.4644 -0.8856 0.8856 0.4644 62.731 1654.7816)" class="st6" width="3" height="725.7"/>
				</g>
			</g>
		</g>
	</g>
</g>
</svg>
